<svg width="1124" height="190" viewBox="0 0 1124 190" fill="none" xmlns="http://www.w3.org/2000/svg">
<path d="M986 67.5C986 63.232 985.082 59.0059 983.298 55.0628C981.514 51.1197 978.899 47.5369 975.602 44.519C972.306 41.5011 968.392 39.1072 964.085 37.4739C959.778 35.8406 955.162 35 950.5 35L950.5 67.5H986Z" fill="#5171A5"/>
<circle cx="419" cy="169" r="9" fill="#E96D6D"/>
<ellipse cx="101" cy="97.5" rx="40" ry="39.5" fill="#FFB347"/>
<path d="M82 128.5C82 123.575 80.9395 118.699 78.8791 114.149C76.8186 109.6 73.7986 105.466 69.9914 101.983C66.1842 98.5013 61.6644 95.7391 56.69 93.8545C51.7157 91.97 46.3842 91 41 91L41 128.5H82Z" fill="#5171A5"/>
<path d="M41 128C41 135.223 42.5261 142.375 45.4911 149.048C48.4561 155.721 52.802 161.784 58.2807 166.891C63.7594 171.998 70.2635 176.049 77.4217 178.813C84.5799 181.577 92.252 183 100 183V128H41Z" fill="#F1C8DB"/>
<rect x="129" y="37" width="45" height="87" fill="#D6FEAE"/>
<path d="M105.057 104.404L164.65 138.81L105.057 173.216L105.057 104.404Z" stroke="#223843" stroke-width="11"/>
<path d="M134.195 29.8997L134.195 98.7431L74.5747 64.3214L134.195 29.8997Z" stroke="#223843" stroke-width="11"/>
<path d="M257.912 150.896C251.939 150.896 246.563 149.872 241.784 147.824C237.005 145.691 233.251 142.704 230.52 138.864C227.789 135.024 226.424 130.544 226.424 125.424H242.04C242.381 129.264 243.875 132.421 246.52 134.896C249.251 137.371 253.048 138.608 257.912 138.608C262.947 138.608 266.872 137.413 269.688 135.024C272.504 132.549 273.912 129.392 273.912 125.552C273.912 122.565 273.016 120.133 271.224 118.256C269.517 116.379 267.341 114.928 264.696 113.904C262.136 112.88 258.552 111.771 253.944 110.576C248.141 109.04 243.405 107.504 239.736 105.968C236.152 104.347 233.08 101.872 230.52 98.544C227.96 95.216 226.68 90.7787 226.68 85.232C226.68 80.112 227.96 75.632 230.52 71.792C233.08 67.952 236.664 65.008 241.272 62.96C245.88 60.912 251.213 59.888 257.272 59.888C265.891 59.888 272.931 62.064 278.392 66.416C283.939 70.6827 287.011 76.5707 287.608 84.08H271.48C271.224 80.8373 269.688 78.064 266.872 75.76C264.056 73.456 260.344 72.304 255.736 72.304C251.555 72.304 248.141 73.3707 245.496 75.504C242.851 77.6373 241.528 80.7093 241.528 84.72C241.528 87.4507 242.339 89.712 243.96 91.504C245.667 93.2107 247.8 94.576 250.36 95.6C252.92 96.624 256.419 97.7333 260.856 98.928C266.744 100.549 271.523 102.171 275.192 103.792C278.947 105.413 282.104 107.931 284.664 111.344C287.309 114.672 288.632 119.152 288.632 124.784C288.632 129.307 287.395 133.573 284.92 137.584C282.531 141.595 278.989 144.837 274.296 147.312C269.688 149.701 264.227 150.896 257.912 150.896ZM400.57 79.472L378.682 150H363.322L349.114 97.904L334.906 150H319.546L297.53 79.472H312.378L327.098 136.176L342.074 79.472H357.306L371.642 135.92L386.234 79.472H400.57ZM418.899 70.128C416.254 70.128 414.035 69.232 412.243 67.44C410.451 65.648 409.555 63.4293 409.555 60.784C409.555 58.1387 410.451 55.92 412.243 54.128C414.035 52.336 416.254 51.44 418.899 51.44C421.459 51.44 423.635 52.336 425.427 54.128C427.219 55.92 428.115 58.1387 428.115 60.784C428.115 63.4293 427.219 65.648 425.427 67.44C423.635 69.232 421.459 70.128 418.899 70.128ZM426.067 79.472V150H411.475V79.472H426.067ZM459.817 89.84C462.292 86.5973 465.662 83.8667 469.929 81.648C474.196 79.4293 479.017 78.32 484.393 78.32C490.537 78.32 496.126 79.856 501.161 82.928C506.281 85.9147 510.292 90.1387 513.193 95.6C516.094 101.061 517.545 107.333 517.545 114.416C517.545 121.499 516.094 127.856 513.193 133.488C510.292 139.035 506.281 143.387 501.161 146.544C496.126 149.616 490.537 151.152 484.393 151.152C479.017 151.152 474.238 150.085 470.057 147.952C465.876 145.733 462.462 143.003 459.817 139.76V183.536H445.225V79.472H459.817V89.84ZM502.697 114.416C502.697 109.552 501.673 105.371 499.625 101.872C497.662 98.288 495.017 95.6 491.689 93.808C488.446 91.9307 484.948 90.992 481.193 90.992C477.524 90.992 474.025 91.9307 470.697 93.808C467.454 95.6853 464.809 98.416 462.761 102C460.798 105.584 459.817 109.808 459.817 114.672C459.817 119.536 460.798 123.803 462.761 127.472C464.809 131.056 467.454 133.787 470.697 135.664C474.025 137.541 477.524 138.48 481.193 138.48C484.948 138.48 488.446 137.541 491.689 135.664C495.017 133.701 497.662 130.885 499.625 127.216C501.673 123.547 502.697 119.28 502.697 114.416ZM596.615 113.008C596.615 115.653 596.444 118.043 596.103 120.176H542.215C542.642 125.808 544.732 130.331 548.487 133.744C552.242 137.157 556.85 138.864 562.311 138.864C570.162 138.864 575.708 135.579 578.951 129.008H594.695C592.562 135.493 588.679 140.827 583.047 145.008C577.5 149.104 570.588 151.152 562.311 151.152C555.57 151.152 549.511 149.659 544.135 146.672C538.844 143.6 534.663 139.333 531.591 133.872C528.604 128.325 527.111 121.925 527.111 114.672C527.111 107.419 528.562 101.061 531.463 95.6C534.45 90.0533 538.588 85.7867 543.879 82.8C549.255 79.8133 555.399 78.32 562.311 78.32C568.967 78.32 574.898 79.7707 580.103 82.672C585.308 85.5733 589.362 89.6693 592.263 94.96C595.164 100.165 596.615 106.181 596.615 113.008ZM581.383 108.4C581.298 103.024 579.378 98.7147 575.623 95.472C571.868 92.2293 567.218 90.608 561.671 90.608C556.636 90.608 552.327 92.2293 548.743 95.472C545.159 98.6293 543.026 102.939 542.343 108.4H581.383ZM640.287 150.896C634.314 150.896 628.938 149.872 624.159 147.824C619.38 145.691 615.626 142.704 612.895 138.864C610.164 135.024 608.799 130.544 608.799 125.424H624.415C624.756 129.264 626.25 132.421 628.895 134.896C631.626 137.371 635.423 138.608 640.287 138.608C645.322 138.608 649.247 137.413 652.063 135.024C654.879 132.549 656.287 129.392 656.287 125.552C656.287 122.565 655.391 120.133 653.599 118.256C651.892 116.379 649.716 114.928 647.071 113.904C644.511 112.88 640.927 111.771 636.319 110.576C630.516 109.04 625.78 107.504 622.111 105.968C618.527 104.347 615.455 101.872 612.895 98.544C610.335 95.216 609.055 90.7787 609.055 85.232C609.055 80.112 610.335 75.632 612.895 71.792C615.455 67.952 619.039 65.008 623.647 62.96C628.255 60.912 633.588 59.888 639.647 59.888C648.266 59.888 655.306 62.064 660.767 66.416C666.314 70.6827 669.386 76.5707 669.983 84.08H653.855C653.599 80.8373 652.063 78.064 649.247 75.76C646.431 73.456 642.719 72.304 638.111 72.304C633.93 72.304 630.516 73.3707 627.871 75.504C625.226 77.6373 623.903 80.7093 623.903 84.72C623.903 87.4507 624.714 89.712 626.335 91.504C628.042 93.2107 630.175 94.576 632.735 95.6C635.295 96.624 638.794 97.7333 643.231 98.928C649.119 100.549 653.898 102.171 657.567 103.792C661.322 105.413 664.479 107.931 667.039 111.344C669.684 114.672 671.007 119.152 671.007 124.784C671.007 129.307 669.77 133.573 667.295 137.584C664.906 141.595 661.364 144.837 656.671 147.312C652.063 149.701 646.602 150.896 640.287 150.896ZM705.249 91.376V130.416C705.249 133.061 705.846 134.981 707.041 136.176C708.321 137.285 710.454 137.84 713.441 137.84H722.401V150H710.881C704.31 150 699.276 148.464 695.777 145.392C692.278 142.32 690.529 137.328 690.529 130.416V91.376H682.209V79.472H690.529V61.936H705.249V79.472H722.401V91.376H705.249ZM750.442 89.712C752.575 86.128 755.391 83.3547 758.89 81.392C762.474 79.344 766.698 78.32 771.562 78.32V93.424H767.85C762.133 93.424 757.781 94.8747 754.794 97.776C751.893 100.677 750.442 105.712 750.442 112.88V150H735.85V79.472H750.442V89.712ZM849.615 113.008C849.615 115.653 849.444 118.043 849.103 120.176H795.215C795.642 125.808 797.732 130.331 801.487 133.744C805.242 137.157 809.85 138.864 815.311 138.864C823.162 138.864 828.708 135.579 831.951 129.008H847.695C845.562 135.493 841.679 140.827 836.047 145.008C830.5 149.104 823.588 151.152 815.311 151.152C808.57 151.152 802.511 149.659 797.135 146.672C791.844 143.6 787.663 139.333 784.591 133.872C781.604 128.325 780.111 121.925 780.111 114.672C780.111 107.419 781.562 101.061 784.463 95.6C787.45 90.0533 791.588 85.7867 796.879 82.8C802.255 79.8133 808.399 78.32 815.311 78.32C821.967 78.32 827.898 79.7707 833.103 82.672C838.308 85.5733 842.362 89.6693 845.263 94.96C848.164 100.165 849.615 106.181 849.615 113.008ZM834.383 108.4C834.298 103.024 832.378 98.7147 828.623 95.472C824.868 92.2293 820.218 90.608 814.671 90.608C809.636 90.608 805.327 92.2293 801.743 95.472C798.159 98.6293 796.026 102.939 795.343 108.4H834.383ZM859.111 114.416C859.111 107.333 860.562 101.061 863.463 95.6C866.45 90.1387 870.46 85.9147 875.495 82.928C880.615 79.856 886.247 78.32 892.391 78.32C897.938 78.32 902.759 79.4293 906.855 81.648C911.036 83.7813 914.364 86.4693 916.839 89.712V79.472H931.559V150H916.839V139.504C914.364 142.832 910.994 145.605 906.727 147.824C902.46 150.043 897.596 151.152 892.135 151.152C886.076 151.152 880.53 149.616 875.495 146.544C870.46 143.387 866.45 139.035 863.463 133.488C860.562 127.856 859.111 121.499 859.111 114.416ZM916.839 114.672C916.839 109.808 915.815 105.584 913.767 102C911.804 98.416 909.202 95.6853 905.959 93.808C902.716 91.9307 899.218 90.992 895.463 90.992C891.708 90.992 888.21 91.9307 884.967 93.808C881.724 95.6 879.079 98.288 877.031 101.872C875.068 105.371 874.087 109.552 874.087 114.416C874.087 119.28 875.068 123.547 877.031 127.216C879.079 130.885 881.724 133.701 884.967 135.664C888.295 137.541 891.794 138.48 895.463 138.48C899.218 138.48 902.716 137.541 905.959 135.664C909.202 133.787 911.804 131.056 913.767 127.472C915.815 123.803 916.839 119.536 916.839 114.672ZM1036.1 78.32C1041.65 78.32 1046.6 79.472 1050.95 81.776C1055.39 84.08 1058.84 87.4933 1061.32 92.016C1063.88 96.5387 1065.16 102 1065.16 108.4V150H1050.69V110.576C1050.69 104.261 1049.11 99.44 1045.96 96.112C1042.8 92.6987 1038.49 90.992 1033.03 90.992C1027.57 90.992 1023.22 92.6987 1019.97 96.112C1016.82 99.44 1015.24 104.261 1015.24 110.576V150H1000.77V110.576C1000.77 104.261 999.194 99.44 996.037 96.112C992.88 92.6987 988.57 90.992 983.109 90.992C977.648 90.992 973.296 92.6987 970.053 96.112C966.896 99.44 965.317 104.261 965.317 110.576V150H950.725V79.472H965.317V87.536C967.706 84.6347 970.736 82.3733 974.405 80.752C978.074 79.1307 982 78.32 986.181 78.32C991.813 78.32 996.848 79.5147 1001.29 81.904C1005.72 84.2933 1009.14 87.7493 1011.53 92.272C1013.66 88.0053 1016.99 84.6347 1021.51 82.16C1026.03 79.6 1030.9 78.32 1036.1 78.32Z" fill="#223843"/>
</svg>
